Coordinates
version=1
nRows=7
nColumns=40
inDegrees=yes

Units are S.I. units (second, meters, Newtons, ...)
Angles are in degrees.

endheader
time	pelvis_tilt	pelvis_list	pelvis_rotation	pelvis_tx	pelvis_ty	pelvis_tz	hip_flexion_r	hip_adduction_r	hip_rotation_r	knee_angle_r	knee_angle_r_beta	ankle_angle_r	subtalar_angle_r	mtp_angle_r	hip_flexion_l	hip_adduction_l	hip_rotation_l	knee_angle_l	knee_angle_l_beta	ankle_angle_l	subtalar_angle_l	mtp_angle_l	lumbar_extension	lumbar_bending	lumbar_rotation	arm_flex_r	arm_add_r	arm_rot_r	elbow_flex_r	pro_sup_r	wrist_flex_r	wrist_dev_r	arm_flex_l	arm_add_l	arm_rot_l	elbow_flex_l	pro_sup_l	wrist_flex_l	wrist_dev_l
     44.45750000	     -7.35284549	     -5.28826379	      5.57878193	      0.82343593	      0.91765600	      0.46469727	      5.86559704	      0.66076229	    -11.94741023	     25.88170741	     25.88170741	     17.04451591	     -6.23043193	     -4.10373571	     29.69036539	     -5.92688988	      0.78753807	     25.73030776	     25.73030776	      6.26517604	    -13.65280483	      3.35871126	     -8.69246513	      2.68928356	      2.68362951	     28.32540664	    -12.77178697	      8.13861037	     84.56279379	     44.47614293	      0.00000000	      0.00000000	     -0.88122681	     -8.47781149	    -19.81413112	     31.95429642	     45.62838509	      0.00000000	      0.00000000
     44.46971429	     -7.41430751	     -5.13011513	      5.36317394	      0.82451763	      0.91856110	      0.46253611	      6.74318251	      0.10384823	    -11.60350130	     28.20167107	     28.20167107	     16.35566211	     -7.08056083	     -4.85592675	     29.06374974	     -5.74231512	      0.55972424	     25.57931301	     25.57931301	      6.79206273	    -13.67513226	      3.36377130	     -8.67527534	      2.57661654	      2.96606194	     26.88068494	    -12.99575498	      8.23895592	     82.55068760	     44.54040288	      0.00000000	      0.00000000	     -0.60284609	     -8.52608592	    -19.79244280	     32.74280266	     45.63663883	      0.00000000	      0.00000000
     44.48192857	     -7.40809241	     -5.04267500	      5.15041305	      0.82557637	      0.91953243	      0.46053781	      7.56589871	     -0.28837936	    -11.09853875	     30.37518456	     30.37518456	     14.60453417	     -8.78700426	     -7.69669430	     28.39602307	     -5.64814003	      0.34634267	     25.45999327	     25.45999327	      7.34689802	    -13.64075526	      3.58769964	     -8.67880739	      2.52600393	      2.39659393	     26.45948646	    -12.03635145	      8.13541584	     77.81757839	     44.72806178	      0.00000000	      0.00000000	     -1.35166679	     -8.71946335	    -19.45107110	     34.91903592	     45.61685814	      0.00000000	      0.00000000
     44.49414286	     -7.42327667	     -4.90346898	      4.92847571	      0.82651894	      0.92033008	      0.45852607	      8.62978417	     -0.80727011	    -10.66126373	     32.93985818	     32.93985818	     12.90370173	    -10.29739941	    -10.16369781	     27.70539708	     -5.52303929	     -0.00917551	     25.24630794	     25.24630794	      7.76473526	    -13.49576653	      3.38310985	     -8.68826288	      2.44630368	      2.25678613	     25.50922120	    -11.97044339	      8.72705289	     74.70108140	     44.83230263	      0.00000000	      0.00000000	     -1.58842800	     -8.89074989	    -19.14797661	     36.45458989	     45.61828637	      0.00000000	      0.00000000
     44.50635714	     -7.42480101	     -4.67435225	      4.70170008	      0.82728348	      0.92103393	      0.45647583	      9.92821502	     -1.49579327	    -10.27631416	     35.98709693	     35.98709693	     11.73619926	    -11.23727660	    -10.74455523	     26.99579667	     -5.30376212	     -0.42543488	     25.02244235	     25.02244235	      8.14326947	    -13.34872024	      3.21860097	     -8.79244999	      2.29922129	      2.40559998	     23.97339161	    -12.21577228	      8.92719462	     73.07223863	     44.87687716	      0.00000000	      0.00000000	     -1.18754597	     -9.00811182	    -19.12277368	     37.01329672	     45.62915082	      0.00000000	      0.00000000
     44.51857143	     -7.43413853	     -4.57062134	      4.48910803	      0.82796794	      0.92164680	      0.45455327	     11.24732671	     -1.92406873	     -9.67017622	     38.81745344	     38.81745344	      9.31995107	    -13.32592911	    -13.45308767	     26.34594958	     -5.21044985	     -0.77286247	     24.82804551	     24.82804551	      8.44367385	    -13.20576606	      2.85500428	     -8.75348385	      2.30895464	      1.84446279	     23.76208729	    -11.32950331	      8.79937574	     67.67333412	     45.07918647	      0.00000000	      0.00000000	     -1.72488451	     -9.31599472	    -18.54199636	     38.74959711	     45.60647887	      0.00000000	      0.00000000
     44.53078571	     -7.40251549	     -4.34930613	      4.26596067	      0.82846720	      0.92208837	      0.45251903	     12.77917324	     -2.58931990	     -9.20108823	     42.16043015	     42.16043015	      7.70823743	    -14.35441583	    -13.69526443	     25.69896820	     -4.97406793	     -1.10330087	     24.73597519	     24.73597519	      8.83529783	    -13.16041716	      2.69490888	     -8.90845726	      2.24783182	      2.04406209	     22.23597605	    -11.75593283	      9.00591538	     66.08254130	     45.12041417	      0.00000000	      0.00000000	     -1.24179026	     -9.42377838	    -18.53622714	     39.33892662	     45.62126285	      0.00000000	      0.00000000
